<?xml version="1.0" encoding="UTF-8" standalone="no"?>
<svg width="256" height="256" viewBox="0 0 256 256" xmlns="http://www.w3.org/2000/svg">
    <!-- Background circle -->
    <circle cx="128" cy="128" r="120" fill="#0078D4"/>
    
    <!-- Microphone -->
    <path d="M128 168c17.673 0 32-14.327 32-32V80c0-17.673-14.327-32-32-32s-32 14.327-32 32v56c0 17.673 14.327 32 32 32z" 
          fill="white"/>
    
    <!-- Sound waves -->
    <path d="M82 128c0-25.405 20.595-46 46-46s46 20.595 46 46m-92 0h-16m108 0h16" 
          stroke="white" 
          stroke-width="12" 
          stroke-linecap="round" 
          fill="none"/>
    
    <!-- Stand -->
    <path d="M128 168v24m-32 0h64" 
          stroke="white" 
          stroke-width="12" 
          stroke-linecap="round" 
          fill="none"/>
    
    <!-- Whisper effect -->
    <path d="M60 128c0 37.555 30.445 68 68 68s68-30.445 68-68" 
          stroke="white" 
          stroke-width="8" 
          stroke-linecap="round" 
          stroke-dasharray="8,8" 
          fill="none"/>
</svg>
